<?xml version="1.0" encoding="UTF-8" standalone="no"?>
<svg xmlns="http://www.w3.org/2000/svg"
     version="1.1"
     width="160"
     height="48">
  <style type="text/css">
    .bg {
      fill: #c00;
    }
    .glyph {
      fill: #fff;
      stroke: #fff;
    }

    .glyph.bold {
      stroke-width: 0;
    }
  </style>
  <path class="bg"
        d="M 7.9999998,6 152,6 c 2.216,0 4,1.784 4,4 l 0,28 c 0,2.216 -1.784,4 -4,4 L 7.9999998,42 C 5.7839999,42 4,40.216 4,38 L 4,10 C 4,7.784 5.7839999,6 7.9999998,6 z"
        transform="translate(0,2)"/>
  <path class="glyph"
        d="m 14,19.9004 3.964425,0 c 1.084281,0 1.982206,0.1694 2.693776,0.5082 0.72285,0.3389 1.298877,0.7906 1.728083,1.3554 0.429187,0.5647 0.728495,1.2085 0.897925,1.9314 0.180704,0.7228 0.271061,1.4683 0.271072,2.2363 -1.1e-5,0.8584 -0.112957,1.6603 -0.33884,2.4058 -0.214609,0.7341 -0.553448,1.3723 -1.016519,1.9144 -0.46309,0.5422 -1.050412,0.9713 -1.761967,1.2876 -0.700275,0.305 -1.536079,0.4574 -2.507414,0.4574 L 14,31.9969 14,19.9004 m 3.998309,11.4527 c 0.564727,0 1.12946,-0.085 1.694199,-0.2541 0.57602,-0.1807 1.095574,-0.4744 1.558663,-0.881 0.463072,-0.4179 0.835795,-0.9713 1.118171,-1.6603 0.293651,-0.7003 0.440481,-1.5756 0.440491,-2.626 -10e-6,-0.8245 -0.08472,-1.5304 -0.25413,-2.1177 -0.158134,-0.5874 -0.372733,-1.0787 -0.643795,-1.474 -0.259786,-0.4066 -0.564741,-0.7228 -0.914867,-0.9488 -0.338848,-0.2371 -0.694629,-0.4178 -1.067345,-0.5421 -0.361436,-0.1242 -0.728512,-0.2033 -1.10123,-0.2372 -0.361434,-0.045 -0.688979,-0.068 -0.982635,-0.068 l -3.100383,0 0,10.809 3.252861,0"/>
  <path class="glyph"
        d="m 24.791516,27.6428 c -1e-6,-0.6212 0.08471,-1.2028 0.25413,-1.745 0.180713,-0.5534 0.44049,-1.0391 0.779331,-1.457 0.338838,-0.4179 0.75674,-0.7454 1.253707,-0.9826 0.496962,-0.2485 1.067341,-0.3727 1.711141,-0.3728 0.64379,10e-5 1.21417,0.1243 1.71114,0.3728 0.496959,0.2372 0.91486,0.5647 1.253707,0.9826 0.338832,0.4179 0.592962,0.9036 0.76239,1.457 0.180706,0.5422 0.271063,1.1238 0.271071,1.745 -8e-6,0.6213 -0.09036,1.2086 -0.271071,1.762 -0.169428,0.5534 -0.423558,1.0391 -0.76239,1.457 -0.338847,0.4066 -0.756748,0.7342 -1.253707,0.9827 -0.49697,0.2371 -1.06735,0.3557 -1.71114,0.3557 -0.6438,0 -1.214179,-0.1186 -1.711141,-0.3557 -0.496967,-0.2485 -0.914869,-0.5761 -1.253707,-0.9827 -0.338841,-0.4179 -0.598618,-0.9036 -0.779331,-1.457 -0.169421,-0.5534 -0.254131,-1.1407 -0.25413,-1.762 m 0.643796,0 c -2e-6,0.5196 0.07341,1.0222 0.220245,1.5079 0.146829,0.4744 0.361428,0.8979 0.643796,1.2706 0.282364,0.3728 0.632498,0.6721 1.050403,0.898 0.417899,0.2146 0.897921,0.3218 1.440069,0.3218 0.542138,0 1.022161,-0.1072 1.440069,-0.3218 0.417895,-0.2259 0.76803,-0.5252 1.050403,-0.898 0.282359,-0.3727 0.496957,-0.7962 0.643795,-1.2706 0.146823,-0.4857 0.220238,-0.9883 0.220246,-1.5079 -8e-6,-0.5195 -0.07342,-1.0165 -0.220246,-1.4909 -0.146838,-0.4856 -0.361436,-0.9148 -0.643795,-1.2875 -0.282373,-0.3728 -0.632508,-0.6664 -1.050403,-0.881 -0.417908,-0.2259 -0.897931,-0.3389 -1.440069,-0.3389 -0.542148,0 -1.02217,0.113 -1.440069,0.3389 -0.417905,0.2146 -0.768039,0.5082 -1.050403,0.881 -0.282368,0.3727 -0.496967,0.8019 -0.643796,1.2875 -0.146831,0.4744 -0.220247,0.9714 -0.220245,1.4909"/>
  <path class="glyph"
        d="m 34.297823,23.2888 0.643795,0 0,1.8636 0.03388,0 c 0.112945,-0.3276 0.27107,-0.6156 0.474376,-0.8641 0.214596,-0.2597 0.457431,-0.48 0.728505,-0.6607 0.282364,-0.1807 0.587319,-0.3163 0.914867,-0.4066 0.327541,-0.09 0.660733,-0.1355 0.999578,-0.1356 0.508254,10e-5 0.93745,0.062 1.287591,0.1864 0.361422,0.1243 0.655083,0.288 0.880983,0.4913 0.225886,0.2033 0.400953,0.4349 0.525201,0.6946 0.135529,0.2485 0.231533,0.5027 0.288014,0.7624 0.05647,0.2598 0.09035,0.5139 0.101652,0.7624 0.01129,0.2372 0.01693,0.4462 0.01694,0.6269 l 0,5.3875 -0.643795,0 0,-5.5061 c -8e-6,-0.2146 -0.01695,-0.4857 -0.05083,-0.8132 -0.03389,-0.3276 -0.135543,-0.6382 -0.304956,-0.9318 -0.158132,-0.305 -0.406614,-0.5648 -0.745448,-0.7794 -0.32755,-0.2146 -0.784984,-0.3219 -1.3723,-0.3219 -0.49697,0 -0.937461,0.09 -1.321475,0.2711 -0.384022,0.1807 -0.711566,0.4349 -0.982635,0.7624 -0.271074,0.3163 -0.480025,0.7003 -0.626854,1.152 -0.135538,0.4405 -0.203305,0.9262 -0.203304,1.4571 l 0,4.7098 -0.643795,0 0,-8.7081"/>
  <path class="glyph"
        d="m 48.876931,30.2688 -0.03388,0 c -0.101658,0.2598 -0.248489,0.5083 -0.440491,0.7455 -0.192016,0.2259 -0.429203,0.4292 -0.711564,0.6099 -0.271077,0.1807 -0.58168,0.3219 -0.931809,0.4236 -0.350139,0.1016 -0.734157,0.1524 -1.152055,0.1524 -0.926164,0 -1.643374,-0.1976 -2.151632,-0.5929 -0.508261,-0.4066 -0.76239,-1.0278 -0.76239,-1.8637 0,-0.5082 0.101652,-0.9205 0.304956,-1.2367 0.203303,-0.3276 0.457432,-0.5817 0.76239,-0.7624 0.316248,-0.192 0.660735,-0.3275 1.033461,-0.4066 0.384015,-0.079 0.751091,-0.1355 1.101229,-0.1694 l 0.999577,-0.085 c 0.463076,-0.034 0.824504,-0.085 1.084287,-0.1525 0.271066,-0.079 0.474369,-0.1807 0.609912,-0.305 0.135529,-0.1355 0.220239,-0.3049 0.254129,-0.5082 0.03388,-0.2033 0.05082,-0.4575 0.05083,-0.7624 -6e-6,-0.2372 -0.04518,-0.4575 -0.135536,-0.6608 -0.09036,-0.2033 -0.231546,-0.384 -0.423549,-0.5421 -0.192015,-0.1581 -0.440498,-0.2824 -0.745448,-0.3727 -0.304961,-0.09 -0.677684,-0.1356 -1.118171,-0.1356 -0.779335,0 -1.411835,0.192 -1.897502,0.5761 -0.474378,0.384 -0.734155,0.9657 -0.779332,1.745 l -0.643795,0 c 0.04518,-0.9601 0.350133,-1.6773 0.914867,-2.1516 0.576025,-0.4857 1.38924,-0.7285 2.439646,-0.7286 1.050398,10e-5 1.812787,0.209 2.287168,0.6269 0.485664,0.4066 0.728498,0.9431 0.728506,1.6095 l 0,5.0656 c -8e-6,0.1243 -8e-6,0.2485 0,0.3728 0.01129,0.1242 0.03388,0.2372 0.06777,0.3388 0.03388,0.1017 0.09035,0.1864 0.16942,0.2541 0.07905,0.056 0.192001,0.085 0.338839,0.085 0.112939,0 0.271064,-0.017 0.474376,-0.051 l 0,0.5422 c -0.169428,0.045 -0.344495,0.068 -0.525202,0.068 -0.259784,0 -0.468735,-0.034 -0.626853,-0.1016 -0.146838,-0.068 -0.259784,-0.1581 -0.33884,-0.2711 -0.07907,-0.1129 -0.135543,-0.2428 -0.16942,-0.3897 -0.0226,-0.1581 -0.03389,-0.3275 -0.03388,-0.5082 l 0,-0.4575 m 0,-3.2189 c -0.158131,0.192 -0.400966,0.3219 -0.728505,0.3896 -0.316256,0.068 -0.672038,0.1186 -1.067345,0.1525 l -1.084287,0.1017 c -0.316254,0.034 -0.632504,0.085 -0.948752,0.1524 -0.316253,0.056 -0.604266,0.1582 -0.864041,0.305 -0.248484,0.1468 -0.451788,0.3501 -0.609911,0.6099 -0.158127,0.2485 -0.237189,0.576 -0.237188,0.9826 -1e-6,0.6438 0.203302,1.1239 0.609911,1.4401 0.406606,0.305 0.965691,0.4574 1.677257,0.4574 0.734148,0 1.315823,-0.1298 1.745025,-0.3896 0.429191,-0.2711 0.756736,-0.576 0.982635,-0.9149 0.225886,-0.3501 0.36707,-0.6833 0.423549,-0.9996 0.06776,-0.3275 0.101646,-0.5477 0.101652,-0.6607 l 0,-1.6264"/>
  <path class="glyph"
        d="m 54.739654,23.8478 -1.897503,0 0,6.0822 c -2e-6,0.3501 0.03953,0.6269 0.118594,0.8302 0.07906,0.2033 0.197654,0.3614 0.355782,0.4743 0.169417,0.1017 0.367073,0.1638 0.592969,0.1864 0.237185,0.023 0.508256,0.028 0.813216,0.017 l 0,0.5591 c -0.327549,0.023 -0.649446,0.023 -0.965693,0 -0.304959,-0.034 -0.576031,-0.1186 -0.813216,-0.2541 -0.23719,-0.1468 -0.429199,-0.3614 -0.576027,-0.6438 -0.135538,-0.2824 -0.192011,-0.672 -0.16942,-1.169 l 0,-6.0822 -1.609489,0 0,-0.559 1.609489,0 0,-2.7108 0.643795,0 0,2.7108 1.897503,0 0,0.559" />
  <path class="glyph"
        d="m 55.961064,27.7276 0,0.1016 c -2e-6,0.5083 0.06777,0.9939 0.203303,1.457 0.135535,0.4631 0.333191,0.8697 0.59297,1.2198 0.271069,0.3502 0.604261,0.6269 0.999577,0.8302 0.406604,0.2033 0.875332,0.3049 1.406185,0.3049 0.869683,0 1.558657,-0.2258 2.066922,-0.6776 0.508253,-0.4631 0.858387,-1.1013 1.050403,-1.9145 l 0.643796,0 c -0.192017,1.0165 -0.609919,1.7959 -1.253707,2.338 -0.632507,0.5422 -1.473958,0.8132 -2.524356,0.8132 -0.643799,0 -1.208532,-0.1129 -1.694199,-0.3388 -0.474378,-0.2372 -0.875337,-0.5534 -1.202881,-0.9488 -0.316251,-0.4066 -0.553439,-0.8809 -0.711563,-1.4231 -0.158126,-0.5534 -0.237188,-1.1464 -0.237188,-1.7789 0,-0.6099 0.07906,-1.1916 0.237188,-1.745 0.169419,-0.5647 0.417901,-1.0561 0.745447,-1.474 0.327543,-0.4292 0.734151,-0.768 1.219823,-1.0165 0.496962,-0.2598 1.078636,-0.3896 1.745025,-0.3897 0.609906,10e-5 1.146402,0.113 1.609489,0.3389 0.474369,0.2259 0.869681,0.5365 1.185939,0.9318 0.316242,0.384 0.55343,0.8358 0.711563,1.3554 0.169412,0.5082 0.254121,1.056 0.25413,1.6433 -9e-6,0.056 -0.0057,0.1243 -0.01694,0.2033 -8e-6,0.068 -8e-6,0.1243 0,0.1695 l -7.030924,0 m 6.387128,-0.5591 c -0.0226,-0.4744 -0.101659,-0.9205 -0.237188,-1.3385 -0.135543,-0.4291 -0.338846,-0.8019 -0.609911,-1.1181 -0.259784,-0.3276 -0.581681,-0.5873 -0.965693,-0.7794 -0.372729,-0.192 -0.801926,-0.288 -1.287591,-0.288 -0.519558,0 -0.976992,0.1017 -1.372301,0.305 -0.395316,0.192 -0.728508,0.4518 -0.999577,0.7793 -0.271074,0.3163 -0.480025,0.689 -0.626854,1.1182 -0.146832,0.4292 -0.237189,0.8697 -0.271071,1.3215 l 6.370186,0"/>
  <path class="glyph"
        d="m 71.343064,31.2515 0.03388,0 2.371878,-7.9627 0.864041,0 2.38882,7.9627 0.03388,0 2.439646,-7.9627 0.711564,0 -2.795428,8.7081 -0.796273,0 -2.38882,-7.8949 -0.03388,0 -2.405762,7.8949 -0.813216,0 -2.761543,-8.7081 0.694621,0 2.456588,7.9627" />
  <path class="glyph"
        d="m 85.305383,19.6123 0.694621,0 -5.387552,12.6726 -0.694621,0 5.387552,-12.6726" />
  <path class="glyph bold"
        d="m 99.434812,23.6984 c -1.2e-5,1.3692 -0.568792,2.4733 -1.706344,3.3123 -1.132425,0.839 -2.717805,1.2585 -4.756145,1.2585 l -1.127269,0 -0.864753,3.7447 -2.980312,0 2.656029,-11.4966 4.130743,0 c 0.751504,0 1.405216,0.052 1.961138,0.1544 0.561051,0.103 1.044901,0.2806 1.451551,0.5328 0.401482,0.2522 0.707748,0.5816 0.918801,0.9883 0.211029,0.4015 0.316549,0.9033 0.316561,1.5056 m -3.165616,0.2856 c -9e-6,-0.4478 -0.16215,-0.7798 -0.486424,-0.996 -0.32429,-0.2161 -0.805567,-0.3242 -1.44383,-0.3243 l -1.196757,0 -0.795265,3.4436 1.0655,0 c 0.900779,0 1.600817,-0.1827 2.100117,-0.5482 0.504431,-0.3706 0.75665,-0.8956 0.756659,-1.5751" />
  <path class="glyph bold"
        d="m 105.63479,27.9218 c -0.49415,0.041 -0.95741,0.09 -1.38979,0.1467 -0.43238,0.057 -0.80041,0.1389 -1.1041,0.247 -0.31399,0.1133 -0.55334,0.2728 -0.71805,0.4787 -0.16472,0.2059 -0.24708,0.4787 -0.24708,0.8185 0,0.2985 0.10809,0.5096 0.32429,0.6331 0.22133,0.1184 0.54046,0.1776 0.9574,0.1776 0.27281,0 0.56363,-0.062 0.87248,-0.1853 0.31398,-0.1287 0.60738,-0.2909 0.88019,-0.4865 l 0.42466,-1.8298 m -0.7335,3.1733 c -0.17501,0.1132 -0.38605,0.2496 -0.63312,0.4092 -0.24708,0.1596 -0.47614,0.2857 -0.68717,0.3783 -0.28826,0.1184 -0.55849,0.2085 -0.81071,0.2703 -0.25222,0.062 -0.60224,0.093 -1.05006,0.093 -0.72063,0 -1.31,-0.2007 -1.76811,-0.6022 -0.452966,-0.4066 -0.679449,-0.9343 -0.679449,-1.5828 0,-0.6846 0.162141,-1.2637 0.486424,-1.7372 0.324285,-0.4787 0.805555,-0.8596 1.443825,-1.1428 0.59709,-0.2676 1.30743,-0.4606 2.13101,-0.579 0.82871,-0.1184 1.72435,-0.2059 2.68691,-0.2625 0.005,-0.031 0.0154,-0.08 0.0309,-0.1467 0.0154,-0.072 0.0232,-0.1519 0.0232,-0.2394 -1e-5,-0.3655 -0.16987,-0.6202 -0.50959,-0.7644 -0.33973,-0.1492 -0.84675,-0.2239 -1.52104,-0.2239 -0.45812,0 -0.96513,0.077 -1.52104,0.2316 -0.55077,0.1545 -0.96513,0.2832 -1.24308,0.3861 l -0.2548,0 0.40922,-2.0538 c 0.32428,-0.082 0.82614,-0.175 1.50559,-0.278 0.67945,-0.1029 1.35632,-0.1544 2.03063,-0.1544 1.35889,0 2.3549,0.1776 2.98803,0.5328 0.63826,0.3552 0.9574,0.9059 0.95741,1.6523 -1e-5,0.1029 -0.0103,0.2368 -0.0309,0.4015 -0.0155,0.1647 -0.0386,0.3088 -0.0695,0.4323 l -1.3589,5.8989 -2.76413,0 0.20847,-0.9188" />
  <path class="glyph bold"
        d="m 113.19366,35.195 -3.0498,0 2.20821,-3.351 -1.42839,-8.5008 2.84134,0 0.74893,5.6827 3.3046,-5.6827 2.93399,0 -7.55888,11.8518" />
  <path class="glyph bold"
        d="m 131.86308,23.6984 c -1e-5,1.3692 -0.5688,2.4733 -1.70635,3.3123 -1.13242,0.839 -2.7178,1.2585 -4.75614,1.2585 l -1.12727,0 -0.86475,3.7447 -2.98032,0 2.65603,-11.4966 4.13075,0 c 0.7515,0 1.40521,0.052 1.96113,0.1544 0.56105,0.103 1.0449,0.2806 1.45155,0.5328 0.40149,0.2522 0.70775,0.5816 0.91881,0.9883 0.21102,0.4015 0.31655,0.9033 0.31656,1.5056 m -3.16562,0.2856 c -1e-5,-0.4478 -0.16215,-0.7798 -0.48642,-0.996 -0.32429,-0.2161 -0.80557,-0.3242 -1.44383,-0.3243 l -1.19676,0 -0.79527,3.4436 1.06551,0 c 0.90077,0 1.60081,-0.1827 2.10011,-0.5482 0.50443,-0.3706 0.75665,-0.8956 0.75666,-1.5751" />
  <path class="glyph bold"
        d="m 138.06305,27.9218 c -0.49415,0.041 -0.95741,0.09 -1.38978,0.1467 -0.43238,0.057 -0.80042,0.1389 -1.1041,0.247 -0.314,0.1133 -0.55335,0.2728 -0.71806,0.4787 -0.16472,0.2059 -0.24707,0.4787 -0.24707,0.8185 0,0.2985 0.10809,0.5096 0.32428,0.6331 0.22133,0.1184 0.54047,0.1776 0.95741,0.1776 0.2728,0 0.56363,-0.062 0.87247,-0.1853 0.31398,-0.1287 0.60738,-0.2909 0.8802,-0.4865 l 0.42465,-1.8298 m -0.73349,3.1733 c -0.17502,0.1132 -0.38606,0.2496 -0.63313,0.4092 -0.24707,0.1596 -0.47613,0.2857 -0.68717,0.3783 -0.28825,0.1184 -0.55849,0.2085 -0.8107,0.2703 -0.25223,0.062 -0.60225,0.093 -1.05006,0.093 -0.72063,0 -1.31,-0.2007 -1.76811,-0.6022 -0.45297,-0.4066 -0.67945,-0.9343 -0.67945,-1.5828 0,-0.6846 0.16214,-1.2637 0.48642,-1.7372 0.32428,-0.4787 0.80556,-0.8596 1.44383,-1.1428 0.59709,-0.2676 1.30742,-0.4606 2.131,-0.579 0.82872,-0.1184 1.72435,-0.2059 2.68691,-0.2625 0.005,-0.031 0.0154,-0.08 0.0309,-0.1467 0.0154,-0.072 0.0232,-0.1519 0.0232,-0.2394 -1e-5,-0.3655 -0.16987,-0.6202 -0.50959,-0.7644 -0.33973,-0.1492 -0.84674,-0.2239 -1.52104,-0.2239 -0.45811,0 -0.96513,0.077 -1.52104,0.2316 -0.55076,0.1545 -0.96513,0.2832 -1.24308,0.3861 l -0.25479,0 0.40921,-2.0538 c 0.32428,-0.082 0.82615,-0.175 1.5056,-0.278 0.67944,-0.1029 1.35632,-0.1544 2.03063,-0.1544 1.35889,0 2.3549,0.1776 2.98803,0.5328 0.63826,0.3552 0.95739,0.9059 0.9574,1.6523 -1e-5,0.1029 -0.0103,0.2368 -0.0309,0.4015 -0.0155,0.1647 -0.0386,0.3088 -0.0695,0.4323 l -1.3589,5.8989 -2.76412,0 0.20847,-0.9188" />
  <path class="glyph bold"
        d="m 148,20 -2.77957,12.0139 -2.795,0 L 145.20499,20 148,20" />
</svg>
